# xmcd
#
# Track frame offsets:
# 150
# 14313
# 28691
# 43753
# 60392
# 77903
# 92190
# 108708
# 124161
# 135287
# 150775
# 164933
# 180205
# 195137
# 224240
# 240334
# 256306
# 274224
# 292148
# 314122
# 328604
# 345729
#
# Disc length: 4773 seconds
#
#
# Revision: 0
# Processed by: cddbd v1.5.2PL0 Copyright (c) Steve Scherf et al.
# Submitted via: FreeRIP 2.51 
#
DISCID=4212a316
DTITLE=hitexplosion 2006 -12-cd 1
DYEAR=2006
DGENRE=Top 40
TTITLE0=roy gates - midnight sun
TTITLE1=booty luv - boogie 2 nite
TTITLE2=fouradi - 1 ding
TTITLE3=pussycat dolls - wait a minute
TTITLE4=pink - nobody knows
TTITLE5=lily allen - ldn
TTITLE6=dhany - miles of love
TTITLE7=ray burton and titus - secrets
TTITLE8=gnarls barkley - gone daddy gone
TTITLE9=james morrison - wonderful world
TTITLE10=gwen stefani - wind it up
TTITLE11=axwell - watch the sunrise
TTITLE12=sharam and euphonix - patt
TTITLE13=green velvet - shake and pop
TTITLE14=jojo - too late too little
TTITLE15=damien rice - 9 crimes
TTITLE16=ayo - down on my knees
TTITLE17=arctic monkeys and sander van doorn - when the sun goes down
TTITLE18=buena vista socialclub and coldplay - clocksa
TTITLE19=jan smit - cupido
TTITLE20=dicecream and brainpower - vlinders
TTITLE21=basshunter - jingle bells
EXTD=peter-holland\nmet -
EXTT0=
EXTT1=
EXTT2=
EXTT3=
EXTT4=
EXTT5=
EXTT6=
EXTT7=
EXTT8=
EXTT9=
EXTT10=
EXTT11=
EXTT12=
EXTT13=
EXTT14=
EXTT15=
EXTT16=
EXTT17=
EXTT18=
EXTT19=
EXTT20=
EXTT21=
PLAYORDER=
